<svg id="visual" viewBox="0 0 900 600" width="900" height="600" xmlns="http://www.w3.org/2000/svg" xmlns:xlink="http://www.w3.org/1999/xlink" version="1.1"><path d="M0 229L13.7 217C27.3 205 54.7 181 82 170C109.3 159 136.7 161 163.8 152C191 143 218 123 245.2 113C272.3 103 299.7 103 327 119C354.3 135 381.7 167 409 182C436.3 197 463.7 195 491 192C518.3 189 545.7 185 573 179C600.3 173 627.7 165 654.8 171C682 177 709 197 736.2 194C763.3 191 790.7 165 818 173C845.3 181 872.7 223 886.3 244L900 265L900 0L886.3 0C872.7 0 845.3 0 818 0C790.7 0 763.3 0 736.2 0C709 0 682 0 654.8 0C627.7 0 600.3 0 573 0C545.7 0 518.3 0 491 0C463.7 0 436.3 0 409 0C381.7 0 354.3 0 327 0C299.7 0 272.3 0 245.2 0C218 0 191 0 163.8 0C136.7 0 109.3 0 82 0C54.7 0 27.3 0 13.7 0L0 0Z" fill="#444444"></path><path d="M0 295L13.7 296C27.3 297 54.7 299 82 286C109.3 273 136.7 245 163.8 226C191 207 218 197 245.2 206C272.3 215 299.7 243 327 260C354.3 277 381.7 283 409 294C436.3 305 463.7 321 491 318C518.3 315 545.7 293 573 289C600.3 285 627.7 299 654.8 307C682 315 709 317 736.2 310C763.3 303 790.7 287 818 290C845.3 293 872.7 315 886.3 326L900 337L900 263L886.3 242C872.7 221 845.3 179 818 171C790.7 163 763.3 189 736.2 192C709 195 682 175 654.8 169C627.7 163 600.3 171 573 177C545.7 183 518.3 187 491 190C463.7 193 436.3 195 409 180C381.7 165 354.3 133 327 117C299.7 101 272.3 101 245.2 111C218 121 191 141 163.8 150C136.7 159 109.3 157 82 168C54.7 179 27.3 203 13.7 215L0 227Z" fill="#323232"></path><path d="M0 439L13.7 435C27.3 431 54.7 423 82 419C109.3 415 136.7 415 163.8 413C191 411 218 407 245.2 423C272.3 439 299.7 475 327 486C354.3 497 381.7 483 409 479C436.3 475 463.7 481 491 472C518.3 463 545.7 439 573 430C600.3 421 627.7 427 654.8 430C682 433 709 433 736.2 439C763.3 445 790.7 457 818 455C845.3 453 872.7 437 886.3 429L900 421L900 335L886.3 324C872.7 313 845.3 291 818 288C790.7 285 763.3 301 736.2 308C709 315 682 313 654.8 305C627.7 297 600.3 283 573 287C545.7 291 518.3 313 491 316C463.7 319 436.3 303 409 292C381.7 281 354.3 275 327 258C299.7 241 272.3 213 245.2 204C218 195 191 205 163.8 224C136.7 243 109.3 271 82 284C54.7 297 27.3 295 13.7 294L0 293Z" fill="#212121"></path><path d="M0 529L13.7 523C27.3 517 54.7 505 82 499C109.3 493 136.7 493 163.8 491C191 489 218 485 245.2 494C272.3 503 299.7 525 327 532C354.3 539 381.7 531 409 530C436.3 529 463.7 535 491 532C518.3 529 545.7 517 573 510C600.3 503 627.7 501 654.8 503C682 505 709 511 736.2 518C763.3 525 790.7 533 818 528C845.3 523 872.7 505 886.3 496L900 487L900 419L886.3 427C872.7 435 845.3 451 818 453C790.7 455 763.3 443 736.2 437C709 431 682 431 654.8 428C627.7 425 600.3 419 573 428C545.7 437 518.3 461 491 470C463.7 479 436.3 473 409 477C381.7 481 354.3 495 327 484C299.7 473 272.3 437 245.2 421C218 405 191 409 163.8 411C136.7 413 109.3 413 82 417C54.7 421 27.3 429 13.7 433L0 437Z" fill="#1d1d1d"></path><path d="M0 601L13.7 601C27.3 601 54.7 601 82 601C109.3 601 136.7 601 163.8 601C191 601 218 601 245.2 601C272.3 601 299.7 601 327 601C354.3 601 381.7 601 409 601C436.3 601 463.7 601 491 601C518.3 601 545.7 601 573 601C600.3 601 627.7 601 654.8 601C682 601 709 601 736.2 601C763.3 601 790.7 601 818 601C845.3 601 872.7 601 886.3 601L900 601L900 485L886.3 494C872.7 503 845.3 521 818 526C790.7 531 763.3 523 736.2 516C709 509 682 503 654.8 501C627.7 499 600.3 501 573 508C545.7 515 518.3 527 491 530C463.7 533 436.3 527 409 528C381.7 529 354.3 537 327 530C299.7 523 272.3 501 245.2 492C218 483 191 487 163.8 489C136.7 491 109.3 491 82 497C54.7 503 27.3 515 13.7 521L0 527Z" fill="#1a1a1a"></path></svg>